<?xml version="1.0" standalone="no"?>
<!DOCTYPE svg PUBLIC "-//W3C//DTD SVG 20010904//EN"
 "http://www.w3.org/TR/2001/REC-SVG-20010904/DTD/svg10.dtd">
<svg version="1.0" xmlns="http://www.w3.org/2000/svg"
 width="375.000000pt" height="139.000000pt" viewBox="0 0 375.000000 139.000000"
 preserveAspectRatio="xMidYMid meet">

<g transform="translate(0.000000,139.000000) scale(0.100000,-0.100000)"
fill="#000000" stroke="none">
<path d="M87 1313 c-4 -3 -7 -266 -7 -583 0 -435 3 -579 12 -588 9 -9 168 -12
655 -12 634 0 642 0 653 20 7 14 10 147 8 418 -3 388 -3 398 -25 432 -44 70
-60 74 -326 80 -231 5 -239 6 -257 27 -10 12 -21 42 -24 67 -9 57 -42 106 -86
128 -31 16 -68 18 -316 18 -154 0 -284 -3 -287 -7z m594 -80 c13 -13 25 -42
30 -74 9 -57 29 -90 73 -123 25 -19 45 -21 268 -26 l240 -5 24 -28 c24 -28 24
-30 24 -248 l0 -219 -595 0 -595 0 0 375 0 376 255 -3 c246 -3 255 -4 276 -25z
m-431 -863 l0 -70 30 0 30 0 0 70 0 70 40 0 40 0 0 -71 0 -70 33 3 32 3 3 68
3 67 69 0 70 0 0 -70 0 -70 30 0 30 0 0 70 0 70 40 0 40 0 0 -70 0 -70 30 0
30 0 0 70 0 70 35 0 35 0 0 -70 0 -70 35 0 35 0 0 70 0 70 60 0 60 0 0 -71 0
-70 33 3 32 3 3 68 3 67 34 0 35 0 0 -71 0 -70 33 3 32 3 3 68 3 67 34 0 35 0
0 -120 0 -120 -595 0 -595 0 0 120 0 120 50 0 50 0 0 -70z"/>
<path d="M1540 630 c0 -109 2 -130 15 -130 12 0 15 19 16 108 l0 107 37 -72
c20 -40 41 -73 47 -73 6 0 27 33 47 73 l37 72 0 -107 c1 -89 4 -108 16 -108
13 0 15 21 15 130 0 128 0 130 -22 130 -19 -1 -30 -15 -57 -73 l-33 -72 -36
73 c-29 58 -41 72 -59 72 -23 0 -23 -1 -23 -130z"/>
<path d="M1830 659 c0 -98 1 -101 29 -130 46 -46 135 -36 160 18 6 13 11 66
11 118 0 78 -3 95 -15 95 -12 0 -15 -16 -15 -84 0 -101 -10 -133 -45 -142 -70
-18 -95 20 -95 147 0 64 -3 79 -15 79 -12 0 -15 -18 -15 -101z"/>
<path d="M2105 735 c-33 -32 -32 -68 1 -94 15 -12 32 -21 38 -21 6 0 28 -5 49
-11 33 -9 38 -14 35 -37 -4 -39 -46 -51 -104 -30 -42 15 -44 15 -44 -3 0 -45
137 -52 172 -9 39 48 11 103 -59 116 -53 9 -73 22 -73 44 0 38 59 51 110 25
29 -15 30 -14 30 5 0 45 -115 56 -155 15z"/>
<path d="M2300 745 c0 -8 7 -15 15 -15 12 0 15 -18 15 -100 0 -82 -3 -100 -15
-100 -8 0 -15 -7 -15 -15 0 -11 12 -15 50 -15 38 0 50 4 50 15 0 8 -7 15 -15
15 -12 0 -15 18 -15 100 0 82 3 100 15 100 8 0 15 7 15 15 0 11 -12 15 -50 15
-38 0 -50 -4 -50 -15z"/>
<path d="M2493 740 c-42 -25 -53 -48 -53 -114 0 -47 4 -61 28 -87 23 -25 38
-32 78 -36 61 -6 104 9 104 36 0 19 -2 19 -35 5 -49 -20 -80 -18 -112 10 -24
21 -28 32 -28 76 0 44 4 55 28 76 32 28 63 30 112 10 33 -14 35 -14 35 5 0 40
-102 53 -157 19z"/>
<path d="M2810 630 l0 -130 80 0 c64 0 80 3 80 15 0 12 -13 15 -60 15 l-60 0
0 115 c0 108 -1 115 -20 115 -19 0 -20 -7 -20 -130z"/>
<path d="M2990 745 c0 -8 7 -15 15 -15 12 0 15 -18 15 -100 0 -82 -3 -100 -15
-100 -8 0 -15 -7 -15 -15 0 -11 12 -15 50 -15 38 0 50 4 50 15 0 8 -7 15 -15
15 -12 0 -15 18 -15 100 0 82 3 100 15 100 8 0 15 7 15 15 0 11 -12 15 -50 15
-38 0 -50 -4 -50 -15z"/>
<path d="M3155 735 c-33 -32 -32 -68 1 -94 15 -12 32 -21 38 -21 6 0 28 -5 49
-11 33 -9 38 -14 35 -37 -4 -39 -46 -51 -104 -30 -42 15 -44 15 -44 -3 0 -45
137 -52 172 -9 39 48 11 103 -59 116 -53 9 -73 22 -73 44 0 38 59 51 110 25
29 -15 30 -14 30 5 0 45 -115 56 -155 15z"/>
<path d="M3330 745 c0 -11 12 -15 45 -15 l45 0 0 -115 c0 -108 1 -115 20 -115
19 0 20 7 20 115 l0 115 45 0 c33 0 45 4 45 15 0 12 -19 15 -110 15 -91 0
-110 -3 -110 -15z"/>
</g>
</svg>
